<mxfile host="Electron" agent="Mozilla/5.0 (Windows NT 10.0; Win64; x64) AppleWebKit/537.36 (KHTML, like Gecko) draw.io/24.7.17 Chrome/128.0.6613.36 Electron/32.0.1 Safari/537.36" version="24.7.17">
  <diagram name="Page-1" id="rVa0lQzbfpYa6h9eCQeA">
    <mxGraphModel dx="1400" dy="2510" grid="1" gridSize="10" guides="1" tooltips="1" connect="1" arrows="1" fold="1" page="1" pageScale="1" pageWidth="1654" pageHeight="1169" math="0" shadow="0">
      <root>
        <mxCell id="0" />
        <mxCell id="1" parent="0" />
        <mxCell id="79m3ewyvMt1H0q8h959R-1" value="&lt;font style=&quot;font-size: 33px;&quot;&gt;Client&lt;/font&gt;" style="html=1;whiteSpace=wrap;strokeWidth=3;" vertex="1" parent="1">
          <mxGeometry x="20" y="10" width="110" height="50" as="geometry" />
        </mxCell>
        <mxCell id="79m3ewyvMt1H0q8h959R-2" value="&lt;font style=&quot;font-size: 33px;&quot;&gt;Client&lt;/font&gt;" style="html=1;whiteSpace=wrap;strokeWidth=3;" vertex="1" parent="1">
          <mxGeometry x="25" y="1040" width="110" height="50" as="geometry" />
        </mxCell>
        <mxCell id="79m3ewyvMt1H0q8h959R-3" value="" style="endArrow=none;dashed=1;html=1;rounded=0;entryX=0.5;entryY=1;entryDx=0;entryDy=0;exitX=0.5;exitY=0;exitDx=0;exitDy=0;" edge="1" parent="1" source="79m3ewyvMt1H0q8h959R-2" target="79m3ewyvMt1H0q8h959R-1">
          <mxGeometry width="50" height="50" relative="1" as="geometry">
            <mxPoint x="-10" y="660" as="sourcePoint" />
            <mxPoint x="40" y="610" as="targetPoint" />
          </mxGeometry>
        </mxCell>
        <mxCell id="79m3ewyvMt1H0q8h959R-4" value="&lt;font style=&quot;font-size: 33px;&quot;&gt;Web Application&lt;/font&gt;" style="html=1;whiteSpace=wrap;strokeWidth=3;" vertex="1" parent="1">
          <mxGeometry x="617" y="10" width="260" height="50" as="geometry" />
        </mxCell>
        <mxCell id="79m3ewyvMt1H0q8h959R-5" value="&lt;font style=&quot;font-size: 33px;&quot;&gt;Authentication Service&lt;/font&gt;" style="html=1;whiteSpace=wrap;strokeWidth=3;" vertex="1" parent="1">
          <mxGeometry x="1260" y="20" width="380" height="50" as="geometry" />
        </mxCell>
        <mxCell id="79m3ewyvMt1H0q8h959R-6" value="&lt;font style=&quot;font-size: 33px;&quot;&gt;Web Application&lt;/font&gt;" style="html=1;whiteSpace=wrap;strokeWidth=3;" vertex="1" parent="1">
          <mxGeometry x="630" y="1050" width="260" height="50" as="geometry" />
        </mxCell>
        <mxCell id="79m3ewyvMt1H0q8h959R-7" value="&lt;font style=&quot;font-size: 33px;&quot;&gt;Authentication Service&lt;/font&gt;" style="html=1;whiteSpace=wrap;strokeWidth=3;" vertex="1" parent="1">
          <mxGeometry x="1260" y="1050" width="380" height="50" as="geometry" />
        </mxCell>
        <mxCell id="79m3ewyvMt1H0q8h959R-8" value="" style="endArrow=none;dashed=1;html=1;rounded=0;entryX=0.389;entryY=0.984;entryDx=0;entryDy=0;entryPerimeter=0;exitX=0.347;exitY=0.096;exitDx=0;exitDy=0;exitPerimeter=0;" edge="1" parent="1" source="79m3ewyvMt1H0q8h959R-6" target="79m3ewyvMt1H0q8h959R-4">
          <mxGeometry width="50" height="50" relative="1" as="geometry">
            <mxPoint x="540" y="850" as="sourcePoint" />
            <mxPoint x="590" y="800" as="targetPoint" />
          </mxGeometry>
        </mxCell>
        <mxCell id="79m3ewyvMt1H0q8h959R-9" value="" style="endArrow=none;dashed=1;html=1;rounded=0;entryX=0.5;entryY=1;entryDx=0;entryDy=0;exitX=0.5;exitY=0;exitDx=0;exitDy=0;" edge="1" parent="1" source="79m3ewyvMt1H0q8h959R-7" target="79m3ewyvMt1H0q8h959R-5">
          <mxGeometry width="50" height="50" relative="1" as="geometry">
            <mxPoint x="1080" y="850" as="sourcePoint" />
            <mxPoint x="1130" y="800" as="targetPoint" />
          </mxGeometry>
        </mxCell>
        <mxCell id="79m3ewyvMt1H0q8h959R-10" value="" style="endArrow=classic;html=1;rounded=0;strokeWidth=5;" edge="1" parent="1">
          <mxGeometry width="50" height="50" relative="1" as="geometry">
            <mxPoint x="720" y="470" as="sourcePoint" />
            <mxPoint x="1450" y="470" as="targetPoint" />
          </mxGeometry>
        </mxCell>
        <mxCell id="79m3ewyvMt1H0q8h959R-11" value="" style="endArrow=none;html=1;rounded=0;strokeWidth=5;" edge="1" parent="1">
          <mxGeometry width="50" height="50" relative="1" as="geometry">
            <mxPoint x="880" y="630" as="sourcePoint" />
            <mxPoint x="1450" y="630" as="targetPoint" />
          </mxGeometry>
        </mxCell>
        <mxCell id="79m3ewyvMt1H0q8h959R-12" value="" style="endArrow=none;html=1;rounded=0;strokeWidth=5;" edge="1" parent="1">
          <mxGeometry width="50" height="50" relative="1" as="geometry">
            <mxPoint x="875" y="880" as="sourcePoint" />
            <mxPoint x="875" y="626" as="targetPoint" />
            <Array as="points">
              <mxPoint x="875" y="706" />
            </Array>
          </mxGeometry>
        </mxCell>
        <mxCell id="79m3ewyvMt1H0q8h959R-13" value="" style="endArrow=none;html=1;rounded=0;strokeWidth=5;" edge="1" parent="1">
          <mxGeometry width="50" height="50" relative="1" as="geometry">
            <mxPoint x="876" y="880" as="sourcePoint" />
            <mxPoint x="1446" y="870" as="targetPoint" />
          </mxGeometry>
        </mxCell>
        <mxCell id="79m3ewyvMt1H0q8h959R-14" value="" style="endArrow=classic;html=1;rounded=0;strokeWidth=5;" edge="1" parent="1">
          <mxGeometry width="50" height="50" relative="1" as="geometry">
            <mxPoint x="720" y="990" as="sourcePoint" />
            <mxPoint x="1460" y="990" as="targetPoint" />
          </mxGeometry>
        </mxCell>
        <mxCell id="79m3ewyvMt1H0q8h959R-15" value="&lt;font style=&quot;font-size: 45px;&quot;&gt;Success response&lt;/font&gt;" style="text;strokeColor=none;fillColor=none;align=left;verticalAlign=top;spacingLeft=4;spacingRight=4;overflow=hidden;rotatable=0;points=[[0,0.5],[1,0.5]];portConstraint=eastwest;whiteSpace=wrap;html=1;" vertex="1" parent="1">
          <mxGeometry x="877" y="920" width="410" height="146" as="geometry" />
        </mxCell>
        <mxCell id="79m3ewyvMt1H0q8h959R-16" value="" style="endArrow=classic;html=1;rounded=0;strokeWidth=5;" edge="1" parent="1">
          <mxGeometry width="50" height="50" relative="1" as="geometry">
            <mxPoint x="720" y="710" as="sourcePoint" />
            <mxPoint x="70" y="710" as="targetPoint" />
          </mxGeometry>
        </mxCell>
        <mxCell id="79m3ewyvMt1H0q8h959R-17" value="&lt;font style=&quot;font-size: 40px;&quot;&gt;Authentication resuce&lt;/font&gt;" style="text;strokeColor=none;fillColor=none;align=left;verticalAlign=top;spacingLeft=4;spacingRight=4;overflow=hidden;rotatable=0;points=[[0,0.5],[1,0.5]];portConstraint=eastwest;whiteSpace=wrap;html=1;" vertex="1" parent="1">
          <mxGeometry x="200" y="640" width="400" height="70" as="geometry" />
        </mxCell>
        <mxCell id="79m3ewyvMt1H0q8h959R-18" value="" style="endArrow=classic;html=1;rounded=0;strokeWidth=6;" edge="1" parent="1">
          <mxGeometry width="50" height="50" relative="1" as="geometry">
            <mxPoint x="70" y="230" as="sourcePoint" />
            <mxPoint x="720" y="230" as="targetPoint" />
          </mxGeometry>
        </mxCell>
        <mxCell id="79m3ewyvMt1H0q8h959R-19" value="&lt;font style=&quot;font-size: 40px;&quot;&gt;Login request&lt;/font&gt;" style="text;strokeColor=none;fillColor=none;align=left;verticalAlign=top;spacingLeft=4;spacingRight=4;overflow=hidden;rotatable=0;points=[[0,0.5],[1,0.5]];portConstraint=eastwest;whiteSpace=wrap;html=1;" vertex="1" parent="1">
          <mxGeometry x="270" y="170" width="280" height="156" as="geometry" />
        </mxCell>
        <mxCell id="79m3ewyvMt1H0q8h959R-20" value="&lt;font style=&quot;font-size: 40px;&quot;&gt;Verify&amp;nbsp; credentials&lt;/font&gt;" style="text;strokeColor=none;fillColor=none;align=left;verticalAlign=top;spacingLeft=4;spacingRight=4;overflow=hidden;rotatable=0;points=[[0,0.5],[1,0.5]];portConstraint=eastwest;whiteSpace=wrap;html=1;" vertex="1" parent="1">
          <mxGeometry x="950" y="420" width="380" height="156" as="geometry" />
        </mxCell>
        <mxCell id="79m3ewyvMt1H0q8h959R-22" value="&lt;font style=&quot;font-size: 40px;&quot;&gt;Authenticate&lt;/font&gt;" style="text;strokeColor=none;fillColor=none;align=left;verticalAlign=top;spacingLeft=4;spacingRight=4;overflow=hidden;rotatable=0;points=[[0,0.5],[1,0.5]];portConstraint=eastwest;whiteSpace=wrap;html=1;" vertex="1" parent="1">
          <mxGeometry x="1010" y="710" width="300" height="60" as="geometry" />
        </mxCell>
      </root>
    </mxGraphModel>
  </diagram>
</mxfile>
